<mxfile host="app.diagrams.net" modified="2023-10-16T09:32:38.898Z" agent="Mozilla/5.0 (Macintosh; Intel Mac OS X 10_15_7) AppleWebKit/537.36 (KHTML, like Gecko) Chrome/118.0.0.0 Safari/537.36" etag="hR4JqtjeqTpKNrisdlDc" version="22.0.4" type="github">
  <diagram id="C5RBs43oDa-KdzZeNtuy" name="Page-1">
    <mxGraphModel dx="862" dy="1046" grid="1" gridSize="10" guides="1" tooltips="1" connect="1" arrows="1" fold="1" page="1" pageScale="1" pageWidth="827" pageHeight="1169" math="0" shadow="0">
      <root>
        <mxCell id="WIyWlLk6GJQsqaUBKTNV-0" />
        <mxCell id="WIyWlLk6GJQsqaUBKTNV-1" parent="WIyWlLk6GJQsqaUBKTNV-0" />
        <mxCell id="s840BUmLngLW0DSEi_o6-0" value="Logger" style="swimlane;fontStyle=1;align=center;verticalAlign=top;childLayout=stackLayout;horizontal=1;startSize=26;horizontalStack=0;resizeParent=1;resizeParentMax=0;resizeLast=0;collapsible=1;marginBottom=0;whiteSpace=wrap;html=1;" vertex="1" parent="WIyWlLk6GJQsqaUBKTNV-1">
          <mxGeometry x="250" y="40" width="370" height="448" as="geometry" />
        </mxCell>
        <mxCell id="s840BUmLngLW0DSEi_o6-1" value="enum {INFO, WARINNG , DEBUG, ERROR};" style="text;strokeColor=none;fillColor=none;align=left;verticalAlign=top;spacingLeft=4;spacingRight=4;overflow=hidden;rotatable=0;points=[[0,0.5],[1,0.5]];portConstraint=eastwest;whiteSpace=wrap;html=1;" vertex="1" parent="s840BUmLngLW0DSEi_o6-0">
          <mxGeometry y="26" width="370" height="194" as="geometry" />
        </mxCell>
        <mxCell id="s840BUmLngLW0DSEi_o6-2" value="" style="line;strokeWidth=1;fillColor=none;align=left;verticalAlign=middle;spacingTop=-1;spacingLeft=3;spacingRight=3;rotatable=0;labelPosition=right;points=[];portConstraint=eastwest;strokeColor=inherit;" vertex="1" parent="s840BUmLngLW0DSEi_o6-0">
          <mxGeometry y="220" width="370" height="8" as="geometry" />
        </mxCell>
        <mxCell id="s840BUmLngLW0DSEi_o6-3" value="Logger(std::string logfile); // open log file&amp;nbsp;&amp;nbsp;&lt;br&gt;~logger(); // cleose log file&amp;nbsp;&amp;nbsp;&lt;br&gt;&lt;br&gt;bool Info(std::string msg);&lt;br&gt;bool&amp;nbsp;Warning(std::string msg);&lt;br&gt;bool Debug(std::string msg)&lt;br&gt;bool Erorr(std::string&amp;nbsp; msg);&lt;br&gt;&lt;br&gt;boo isGood(); // return status of open log file;&amp;nbsp;&lt;br&gt;static fastLog(int type, std::string &amp;amp;file, std::string &amp;amp;msg);&lt;br&gt;static fastLog(int type, string &amp;amp;msg, Server &amp;amp;serv)" style="text;strokeColor=none;fillColor=none;align=left;verticalAlign=top;spacingLeft=4;spacingRight=4;overflow=hidden;rotatable=0;points=[[0,0.5],[1,0.5]];portConstraint=eastwest;whiteSpace=wrap;html=1;" vertex="1" parent="s840BUmLngLW0DSEi_o6-0">
          <mxGeometry y="228" width="370" height="220" as="geometry" />
        </mxCell>
      </root>
    </mxGraphModel>
  </diagram>
</mxfile>
